<?xml version="1.0" standalone="no"?>
<!DOCTYPE svg PUBLIC "-//W3C//DTD SVG 20010904//EN"
 "http://www.w3.org/TR/2001/REC-SVG-20010904/DTD/svg10.dtd">
<svg version="1.0" xmlns="http://www.w3.org/2000/svg"
 viewBox="0 0 1046.000000 1046.000000"
 preserveAspectRatio="xMidYMid meet">

<g transform="translate(0.000000,1046.000000) scale(0.100000,-0.100000)"
fill="currentColor" stroke="none">
<path d="M4860 9555 c-435 -72 -743 -317 -815 -649 -25 -113 -16 -324 19 -458
73 -278 249 -610 511 -963 28 -38 54 -77 58 -86 3 -10 -24 -70 -70 -150 -110
-196 -136 -266 -137 -364 -1 -94 23 -156 103 -264 121 -165 123 -177 64 -278
-22 -37 -82 -149 -134 -248 -54 -104 -110 -199 -134 -224 -114 -124 -300 -185
-495 -162 -239 29 -483 145 -668 316 -96 89 -190 202 -352 425 -195 269 -280
347 -410 378 -25 6 -127 16 -226 23 -265 18 -400 -5 -534 -92 -156 -101 -263
-268 -322 -506 -32 -127 -32 -333 0 -414 30 -75 81 -132 150 -166 54 -27 64
-28 197 -28 161 0 232 17 370 88 103 54 205 152 228 222 46 133 -5 315 -118
427 -49 49 -93 68 -154 68 -88 0 -147 -45 -234 -175 -28 -41 -36 -95 -15 -95
7 0 53 43 104 97 l91 96 43 -6 c77 -10 131 -86 165 -231 14 -59 14 -69 -1
-106 -46 -114 -278 -219 -459 -208 -130 9 -180 60 -179 183 1 124 89 352 175
449 72 82 226 135 353 122 207 -21 265 -29 293 -37 45 -14 108 -88 198 -231
184 -292 443 -597 581 -685 15 -9 -303 -12 -1423 -12 l-1443 -1 0 -122 c0
-137 21 -402 45 -566 205 -1391 988 -2630 2156 -3410 685 -457 1468 -725 2313
-792 167 -13 545 -13 717 0 950 73 1858 410 2604 965 364 270 712 617 985 980
512 682 846 1524 944 2385 12 103 35 452 36 548 0 9 -302 12 -1476 12 l-1477
0 69 52 c185 141 378 373 565 682 68 112 140 188 194 203 57 17 329 36 395 28
151 -19 247 -97 330 -269 58 -120 82 -206 83 -301 1 -77 -15 -119 -58 -154
-130 -101 -533 25 -585 184 -30 91 34 262 118 317 57 38 120 15 188 -67 73
-89 95 -108 106 -97 14 14 4 41 -52 127 -65 98 -119 135 -201 135 -47 0 -65
-5 -105 -32 -93 -64 -172 -214 -182 -346 -4 -66 -2 -77 27 -137 21 -42 50 -80
84 -110 66 -58 228 -139 331 -165 97 -24 250 -27 323 -5 99 30 179 111 210
214 45 151 -4 428 -116 646 -83 163 -212 268 -388 317 -70 20 -101 22 -293 21
-119 -1 -245 -7 -280 -13 -154 -28 -248 -110 -418 -363 -136 -202 -210 -296
-322 -408 -183 -185 -376 -295 -604 -346 -85 -18 -271 -21 -341 -4 -137 33
-257 126 -332 256 -22 39 -86 161 -143 272 l-103 202 26 38 c104 147 149 222
167 280 41 134 22 220 -98 444 -43 80 -81 155 -84 166 -7 26 24 81 95 170 162
203 347 531 426 756 67 190 75 238 76 422 0 162 -1 174 -28 250 -70 196 -197
332 -415 443 -102 52 -239 101 -357 127 -99 23 -423 29 -535 10z m-190 -2637
l0 -293 -36 50 c-48 67 -92 159 -100 211 -9 59 15 132 77 237 29 48 54 87 56
87 2 0 3 -132 3 -292z m959 194 c62 -103 79 -171 62 -245 -12 -53 -61 -148
-107 -203 l-23 -29 -1 290 c0 182 4 285 9 280 6 -6 32 -47 60 -93z m1311
-1520 l85 -7 -66 -37 c-130 -74 -286 -129 -433 -153 -106 -17 -283 -19 -375
-5 -35 6 -65 9 -68 7 -5 -6 195 -118 278 -156 92 -42 175 -61 263 -61 92 0
160 24 386 133 226 109 426 168 710 208 126 18 416 16 526 -4 389 -70 620
-259 706 -579 33 -124 31 -334 -5 -471 -80 -300 -270 -511 -517 -573 -97 -25
-286 -15 -405 20 -197 59 -339 164 -406 301 -29 60 -34 79 -34 145 0 69 4 85
39 155 80 163 260 298 399 299 128 2 244 -85 327 -246 68 -130 46 -145 -29
-19 -70 119 -175 191 -277 191 -103 0 -236 -98 -300 -221 -37 -72 -40 -182 -7
-245 44 -83 163 -162 299 -200 93 -26 258 -30 344 -9 199 49 326 231 360 518
33 279 -66 495 -273 596 -125 62 -200 75 -422 75 -164 0 -223 -4 -329 -23
-243 -43 -385 -92 -671 -233 -93 -46 -201 -94 -240 -106 -188 -62 -384 -29
-692 118 -153 73 -283 149 -398 234 l-90 67 -6 -78 c-4 -43 -10 -157 -14 -254
-7 -169 -7 -179 14 -221 30 -63 122 -161 204 -219 138 -97 285 -134 757 -194
556 -70 766 -119 991 -230 341 -168 519 -439 519 -787 -1 -344 -205 -540 -565
-540 -122 0 -210 21 -277 67 -76 51 -125 185 -115 310 14 183 110 286 255 273
62 -6 213 -60 233 -84 21 -25 2 -27 -58 -4 -81 31 -197 37 -243 13 -48 -25
-80 -76 -80 -127 0 -43 31 -191 49 -238 6 -16 17 -26 28 -25 10 0 46 -5 81
-12 77 -17 218 -9 287 15 32 11 68 36 101 68 67 68 90 144 81 273 -27 398
-263 571 -907 668 -58 9 -226 29 -375 45 -148 17 -339 42 -424 56 -84 14 -155
23 -158 21 -2 -3 62 -58 144 -123 637 -506 780 -656 839 -879 18 -66 17 -225
-1 -303 -81 -344 -420 -642 -730 -642 -148 0 -250 45 -371 165 -70 68 -89 95
-132 185 -177 362 -91 606 213 604 119 -1 325 -48 325 -75 0 -11 -11 -11 -148
5 -237 29 -359 -17 -378 -140 -24 -161 146 -463 303 -540 113 -56 261 -39 388
44 90 58 198 179 245 276 77 155 87 294 29 416 -56 119 -147 197 -799 685
-385 287 -450 341 -527 435 -56 67 -143 230 -229 428 -27 61 -53 112 -57 112
-4 0 -58 -103 -120 -228 -62 -125 -129 -251 -150 -279 -76 -104 -214 -220
-622 -523 -611 -454 -722 -562 -755 -740 -44 -231 169 -553 419 -630 218 -68
388 25 520 287 63 125 76 229 39 303 -46 91 -148 115 -386 90 -67 -7 -125 -10
-128 -7 -10 10 40 36 101 52 33 9 117 19 187 22 108 5 135 3 174 -12 136 -52
195 -189 159 -366 -41 -205 -157 -395 -297 -489 -253 -169 -607 -74 -843 225
-170 214 -228 463 -157 669 72 210 237 381 780 815 106 84 191 155 188 158 -2
2 -73 -7 -157 -21 -85 -14 -280 -40 -434 -56 -561 -61 -806 -118 -998 -231
-188 -111 -287 -308 -275 -548 7 -143 63 -229 177 -272 72 -27 209 -36 291
-19 33 7 70 13 82 14 19 1 26 14 50 86 34 107 36 180 6 240 -42 80 -135 101
-266 60 -77 -24 -104 -26 -96 -5 17 43 205 95 296 81 138 -21 217 -192 178
-388 -35 -182 -152 -258 -394 -258 -283 0 -460 135 -528 403 -17 68 -20 101
-15 197 10 215 77 370 222 516 97 97 161 143 283 204 227 113 457 164 1101
246 313 39 439 66 549 119 131 62 269 191 315 295 20 44 20 52 8 285 -7 132
-15 243 -17 247 -3 4 -33 -14 -67 -41 -304 -238 -682 -401 -926 -401 -119 0
-209 31 -476 162 -328 161 -642 238 -975 238 -368 0 -584 -134 -655 -406 -22
-85 -20 -259 5 -362 64 -265 190 -402 403 -433 205 -30 483 62 572 189 25 37
30 55 33 117 4 66 1 81 -27 140 -35 76 -123 170 -191 205 -24 12 -69 25 -101
27 -47 5 -66 1 -112 -20 -74 -34 -140 -96 -183 -173 -40 -72 -64 -97 -64 -68
1 51 94 200 161 257 87 75 172 98 271 72 87 -22 159 -68 237 -151 182 -195
181 -389 -5 -570 -131 -127 -341 -204 -557 -204 -190 0 -318 49 -433 164 -105
106 -177 241 -223 421 -34 132 -44 245 -31 354 70 593 636 845 1484 661 132
-29 229 -64 473 -171 111 -49 229 -98 262 -109 104 -35 234 -22 374 36 69 29
274 141 282 155 4 5 -14 6 -42 1 -26 -4 -122 -7 -213 -7 -147 1 -177 4 -274
29 -127 32 -234 76 -329 133 -58 35 -65 42 -45 46 37 7 3615 6 3708 -1z"/>
<path d="M2880 8127 c0 -8 11 -18 25 -21 15 -4 30 -18 35 -32 6 -14 10 -127
10 -251 l0 -226 143 5 c207 7 267 38 274 141 5 65 -20 109 -70 128 l-35 12 31
21 c46 31 63 83 46 138 -12 36 -22 47 -64 68 -47 23 -62 25 -222 28 -147 3
-173 1 -173 -11z m285 -41 c40 -17 55 -42 55 -90 0 -57 -35 -88 -103 -94 l-57
-4 0 94 c0 52 3 98 7 101 11 12 62 8 98 -7z m33 -250 c35 -18 56 -70 46 -110
-3 -14 -20 -37 -36 -51 -24 -21 -40 -25 -89 -25 l-59 0 0 106 0 107 54 -6 c30
-3 67 -12 84 -21z"/>
<path d="M6800 8085 c0 -8 6 -15 14 -15 8 0 22 -7 30 -16 14 -13 16 -51 16
-256 l0 -241 143 6 c225 9 277 37 277 149 0 55 -3 63 -34 94 -19 19 -41 34
-49 34 -9 0 1 15 24 39 34 34 39 45 39 84 0 61 -34 101 -103 122 -73 22 -357
22 -357 0z m285 -40 c52 -25 68 -80 40 -134 -16 -31 -59 -51 -111 -51 l-34 0
0 100 0 100 36 0 c20 0 51 -7 69 -15z m-3 -235 c47 -13 78 -52 78 -97 0 -69
-43 -103 -130 -103 l-50 0 0 105 0 105 33 0 c17 0 49 -5 69 -10z"/>
</g>
</svg>
